<svg width="36" height="36" viewBox="0 0 36 36" fill="none" xmlns="http://www.w3.org/2000/svg">
<g filter="url(#filter0_d_826_3168)">
<path d="M2 9C2 4.58172 5.58172 1 10 1H26C30.4183 1 34 4.58172 34 9V25C34 29.4183 30.4183 33 26 33H10C5.58172 33 2 29.4183 2 25V9Z" fill="white"/>
<path d="M10 1.5H26C30.1421 1.5 33.5 4.85786 33.5 9V25C33.5 29.1421 30.1421 32.5 26 32.5H10C5.85786 32.5 2.5 29.1421 2.5 25V9C2.5 4.85786 5.85786 1.5 10 1.5Z" stroke="#E2E4E9"/>
<path d="M18.796 16.9996L15.0835 13.2871L16.144 12.2266L20.917 16.9996L16.144 21.7726L15.0835 20.7121L18.796 16.9996Z" fill="#525866"/>
</g>
<defs>
<filter id="filter0_d_826_3168" x="0" y="0" width="36" height="36" filterUnits="userSpaceOnUse" color-interpolation-filters="sRGB">
<feFlood flood-opacity="0" result="BackgroundImageFix"/>
<feColorMatrix in="SourceAlpha" type="matrix" values="0 0 0 0 0 0 0 0 0 0 0 0 0 0 0 0 0 0 127 0" result="hardAlpha"/>
<feOffset dy="1"/>
<feGaussianBlur stdDeviation="1"/>
<feComposite in2="hardAlpha" operator="out"/>
<feColorMatrix type="matrix" values="0 0 0 0 0.321569 0 0 0 0 0.345098 0 0 0 0 0.4 0 0 0 0.06 0"/>
<feBlend mode="normal" in2="BackgroundImageFix" result="effect1_dropShadow_826_3168"/>
<feBlend mode="normal" in="SourceGraphic" in2="effect1_dropShadow_826_3168" result="shape"/>
</filter>
</defs>
</svg>
