<svg width="10" height="14" viewBox="0 0 10 14" fill="none" xmlns="http://www.w3.org/2000/svg">
<path d="M7.67824 0.550094C8.02814 0.602321 8.40907 0.72866 8.62743 1.10692C8.84526 1.48424 8.76562 1.87745 8.63759 2.20757C8.51438 2.52527 8.29591 2.90955 8.04147 3.3571L7.30746 4.64834C7.16866 4.89253 7.07927 5.05051 7.02234 5.17158C6.97961 5.26244 6.97176 5.29967 6.97052 5.30583C6.97268 5.37987 7.01177 5.44671 7.07266 5.4844C7.07923 5.48652 7.11529 5.49766 7.21202 5.50522C7.34453 5.51557 7.5455 5.51593 7.82538 5.51593C8.15125 5.51593 8.42465 5.51592 8.63788 5.53225C8.84406 5.54804 9.08687 5.58309 9.29041 5.71838C9.68566 5.9811 9.89119 6.44995 9.81908 6.91823C9.78198 7.1591 9.64528 7.36228 9.51824 7.52623C9.38693 7.69567 9.20312 7.89892 8.98381 8.14141L5.25606 12.2635C4.9141 12.6416 4.62622 12.96 4.39202 13.1642C4.27294 13.268 4.13227 13.3747 3.97528 13.4384C3.80236 13.5086 3.57423 13.5384 3.34763 13.4203C3.12153 13.3025 3.01529 13.0991 2.97304 12.9183C2.93455 12.7536 2.94013 12.5773 2.95588 12.4197C2.98687 12.1099 3.07969 11.69 3.19004 11.1909L3.65555 9.08514C3.74789 8.66744 3.80424 8.40688 3.81865 8.21615C3.83844 8.05893 3.70129 7.9915 3.63025 7.97744C3.44257 7.9503 3.17797 7.94906 2.75208 7.94906L2.40804 7.94906C1.94611 7.94909 1.544 7.94912 1.23328 7.90284C0.904565 7.85387 0.552655 7.73626 0.331658 7.39441C0.111181 7.05337 0.147197 6.68416 0.235824 6.36363C0.319803 6.05991 0.482961 5.69095 0.670749 5.26629L1.90426 2.47632L1.90426 2.47631C2.07797 2.08338 2.22404 1.75297 2.37302 1.49428C2.5309 1.22011 2.71333 0.986977 2.97983 0.812872C3.24652 0.638651 3.53306 0.565564 3.84712 0.5318C4.14312 0.499979 4.50309 0.49999 4.93062 0.500003L6.3891 0.5H6.38915C6.90155 0.499969 7.34224 0.499942 7.67824 0.550094Z" fill="#C2540A"/>
</svg>
